<svg width="37" height="21" viewBox="0 0 37 21" fill="none" xmlns="http://www.w3.org/2000/svg" class=""><path d="M24.0945 17.8959C23.5134 17.8959 22.9267 17.7097 22.4302 17.3204C21.2511 16.4008 21.0424 14.697 21.962 13.5236L26.7743 7.36283C27.6939 6.18371 29.3977 5.97497 30.5712 6.89457C31.7503 7.81416 31.959 9.51796 31.0394 10.6914L26.2271 16.8522C25.6911 17.5348 24.8956 17.8902 24.0945 17.8902V17.8959Z" fill="#8ED2FF"></path><path d="M19.2771 11.7355C18.696 11.7355 18.1093 11.5493 17.6128 11.1601C16.4337 10.2405 16.225 8.53667 17.1446 7.36319L21.9626 1.19681C22.8822 0.0176977 24.586 -0.191045 25.7594 0.728552C26.9386 1.64815 27.1473 3.35194 26.2277 4.52542L21.4153 10.6862C20.8794 11.3688 20.0839 11.7242 19.2828 11.7242L19.2771 11.7355Z" fill="#8ED2FF"></path><path d="M9.4158 12.0289C8.83471 12.0289 8.24797 11.8427 7.7515 11.4534C6.57239 10.5338 6.36364 8.83003 7.28324 7.65656L12.3326 1.19681C13.2522 0.0176977 14.956 -0.191045 16.1294 0.728552C17.3085 1.64815 17.5173 3.35194 16.5977 4.52542L11.554 10.9852C11.018 11.6678 10.2226 12.0232 9.42144 12.0232L9.4158 12.0289Z" fill="#296AEF"></path><path d="M12.3318 20.6208C11.7507 20.6208 11.164 20.4346 10.6675 20.0454C9.4884 19.1258 9.27966 17.422 10.1993 16.2485L17.1442 7.36283C18.0638 6.18371 19.7676 5.97497 20.9411 6.89457C22.1202 7.81416 22.3289 9.51796 21.4093 10.6914L14.4644 19.5771C13.9284 20.2598 13.1329 20.6152 12.3318 20.6152V20.6208Z" fill="#296AEF"></path><path d="M21.9627 20.6212C21.3816 20.6212 20.7948 20.435 20.2984 20.0458C19.1193 19.1262 18.9105 17.4224 19.8301 16.2489L21.957 13.524C22.8766 12.3448 24.5804 12.1361 25.7539 13.0557C26.933 13.9753 27.1418 15.6791 26.2222 16.8526L24.0952 19.5775C23.5593 20.2601 22.7638 20.6156 21.9627 20.6156V20.6212Z" fill="#296AEF"></path><path d="M2.70193 20.6212C2.12084 20.6212 1.5341 20.435 1.03763 20.0458C-0.141482 19.1262 -0.350225 17.4224 0.569372 16.2489L2.69629 13.524C3.61589 12.3448 5.31968 12.1361 6.49316 13.0557C7.67227 13.9753 7.88102 15.6791 6.96142 16.8526L4.8345 19.5775C4.29854 20.2601 3.50306 20.6156 2.70193 20.6156V20.6212Z" fill="#FFA600"></path><path d="M31.5926 20.6212C31.0115 20.6212 30.4247 20.435 29.9283 20.0458C28.7491 19.1262 28.5404 17.4224 29.46 16.2489L31.5869 13.524C32.5065 12.3448 34.2103 12.1361 35.3838 13.0557C36.5629 13.9753 36.7716 15.6791 35.852 16.8526L33.7251 19.5775C33.1892 20.2601 32.3937 20.6156 31.5926 20.6156V20.6212Z" fill="#8ED2FF"></path></svg>